<svg xmlns="http://www.w3.org/2000/svg"><style>:root svg:not(:target){display:none}</style><svg viewBox="0 0 26 31" fill="none" id="Frame-3-(1)"><g clip-path="url(#Frame-3-(1)_0)"><path d="M15.6429 0.955078H5.35714C3.22286 0.955078 1.5 2.72144 1.5 4.90962V26.0005C1.5 28.1887 3.22286 29.9551 5.35714 29.9551H15.6429C17.7771 29.9551 19.5 28.1887 19.5 26.0005V4.90962C19.5 2.72144 17.7771 0.955078 15.6429 0.955078ZM13.0714 27.3187H7.92857V26.0005H13.0714V27.3187ZM17.25 23.3642H3.75V4.90962H17.25V23.3642Z" fill="#02E4C0"></path></g><defs><clipPath id="Frame-3-(1)_0"><rect width="30" height="30" fill="white" transform="translate(-4.5 0.501953)"></rect></clipPath></defs></svg><svg viewBox="0 0 30 30" fill="none" id="Frame-3"><path d="M9.7275 16.8016L13.2797 12.9748L5.51008 4.61813C4.90759 3.96907 3.86579 4.14486 3.48923 4.98323C2.59805 6.99803 2.9244 9.47258 4.46827 11.1493L9.7275 16.8016ZM18.2377 14.3541C20.1581 15.3141 22.8567 14.638 24.8525 12.488C27.2499 9.90529 27.7143 6.20022 25.8692 4.21247C24.0366 2.23824 20.5974 2.72504 18.1874 5.30776C16.1917 7.45778 15.5641 10.365 16.4553 12.4339L5.08332 24.685C4.84862 24.9378 4.71678 25.2807 4.71678 25.6383C4.71678 25.9959 4.84862 26.3388 5.08332 26.5916C5.31801 26.8444 5.63632 26.9865 5.96822 26.9865C6.30012 26.9865 6.61843 26.8444 6.85313 26.5916L14.6227 18.2484L22.3798 26.6051C22.496 26.7303 22.6339 26.8296 22.7858 26.8974C22.9376 26.9651 23.1003 27 23.2647 27C23.429 27 23.5917 26.9651 23.7436 26.8974C23.8954 26.8296 24.0334 26.7303 24.1496 26.6051C24.2658 26.4799 24.358 26.3313 24.4209 26.1677C24.4837 26.0042 24.5161 25.8289 24.5161 25.6518C24.5161 25.4748 24.4837 25.2995 24.4209 25.1359C24.358 24.9723 24.2658 24.8237 24.1496 24.6985L16.3925 16.3418L18.2377 14.3541Z" fill="#02E4C0"></path></svg><svg viewBox="0 0 97 97" fill="none" id="circle-ribbon"><path fill-rule="evenodd" clip-rule="evenodd" d="M95.9551 48.4775C95.9551 74.6987 74.6986 95.9551 48.4775 95.9551C22.2564 95.9551 1 74.6987 1 48.4775C1 22.2564 22.2564 1 48.4775 1C74.6986 1 95.9551 22.2564 95.9551 48.4775ZM81.6123 48.5066C81.6123 66.7888 66.7917 81.6094 48.5095 81.6094C30.2274 81.6094 15.4068 66.7888 15.4068 48.5066C15.4068 30.2245 30.2274 15.4039 48.5095 15.4039C66.7917 15.4039 81.6123 30.2245 81.6123 48.5066Z" fill="#181818"></path><path d="M59.4286 10.4686L58.2437 11.1319L57.8091 12.5966L56.7454 12.281L58.4446 6.5534L59.5083 6.86897L58.6369 9.8064L62.3394 7.70886L63.534 8.06327L60.3686 9.91065L61.9821 13.8345L60.7384 13.4656L59.4286 10.4686Z" fill="#02E4C0"></path><path fill-rule="evenodd" clip-rule="evenodd" d="M53.4176 10.0415L54.4255 11.9216L55.6122 12.0611L54.4766 9.9511C54.9024 9.83787 55.244 9.63739 55.5022 9.34119C55.752 9.04399 55.907 8.6755 55.9598 8.22625C56.0106 7.79396 55.9537 7.40057 55.7871 7.06303C55.6206 6.7255 55.3612 6.44581 54.9997 6.23145C54.6382 6.0171 54.1989 5.87953 53.6819 5.81877L51.2407 5.53186L50.5433 11.4653L51.6453 11.5948L51.8485 9.86566L53.1878 10.0231C53.2895 10.035 53.3658 10.044 53.4176 10.0415ZM54.579 7.17885C54.8009 7.41117 54.8942 7.71431 54.8494 8.09575C54.8046 8.47719 54.6435 8.75044 54.3738 8.92499C54.1031 9.10801 53.7267 9.16689 53.2435 9.1101L51.9551 8.95868L52.233 6.59377L53.5214 6.74519C54.0046 6.80198 54.3571 6.94653 54.579 7.17885Z" fill="#02E4C0"></path><path fill-rule="evenodd" clip-rule="evenodd" d="M46.1461 11.6871C45.5417 11.7299 44.9793 11.6413 44.4747 11.4033C43.9708 11.1737 43.5618 10.8347 43.2477 10.3864C42.9336 9.938 42.7606 9.42832 42.7197 8.84941C42.6787 8.27049 42.7776 7.73302 43.0254 7.24489C43.2732 6.75677 43.631 6.37209 44.097 6.06532C44.5635 5.76706 45.1079 5.60019 45.7123 5.55741C46.3168 5.51463 46.8792 5.60317 47.3832 5.83275C47.8877 6.07083 48.2961 6.40128 48.6102 6.84964C48.9243 7.298 49.0972 7.80768 49.1388 8.39511C49.1804 8.98254 49.0809 9.5115 48.8331 9.99962C48.5853 10.4877 48.2275 10.8724 47.7609 11.1707C47.2949 11.4775 46.7506 11.6443 46.1461 11.6871ZM46.0775 10.7166C46.4776 10.6882 46.8285 10.5693 47.1309 10.3682C47.4332 10.1671 47.6712 9.90218 47.827 9.56601C47.9835 9.23836 48.0519 8.87417 48.0236 8.47404C47.9952 8.07391 47.8763 7.72297 47.6746 7.41211C47.4735 7.10976 47.2001 6.87244 46.8724 6.71595C46.5448 6.55946 46.1812 6.49963 45.781 6.52795C45.3809 6.55626 45.0294 6.6667 44.727 6.86778C44.4247 7.06886 44.1873 7.34234 44.0308 7.66999C43.875 8.00615 43.8066 8.37034 43.8349 8.77048C43.8633 9.17061 43.9822 9.52155 44.1833 9.82389C44.385 10.1348 44.6578 10.3636 44.9855 10.5201C45.3131 10.6765 45.6773 10.7449 46.0775 10.7166Z" fill="#02E4C0"></path><path d="M40.5675 12.3293L40.722 6.03733L39.7096 6.3455L39.5777 11.1586L36.8029 7.23024L35.8231 7.52847L35.6674 12.322L32.9246 8.41073L31.8223 8.74624L35.4562 13.8851L36.5912 13.5396L36.7408 8.87282L39.4407 12.6723L40.5675 12.3293Z" fill="#02E4C0"></path><path d="M30.4233 15.2412L30.919 16.0284L27.1275 18.416L23.9439 13.3606L27.6344 11.0366L28.1301 11.8238L25.3785 13.5565L26.2062 14.871L28.6473 13.3338L29.1339 14.1065L26.6929 15.6437L27.5706 17.0376L30.4233 15.2412Z" fill="#02E4C0"></path><path d="M19.3094 18.3932L20.8083 17.0994L24.0985 20.9114L24.9384 20.1864L21.6483 16.3745L23.1472 15.0807L22.5338 14.37L18.696 17.6825L19.3094 18.3932Z" fill="#02E4C0"></path><path fill-rule="evenodd" clip-rule="evenodd" d="M20.5767 22.3937L18.6254 24.6555L19.2876 26.0046L18.5405 26.8705L15.7731 20.9323L16.4868 20.1052L22.772 21.9657L22.0138 22.8446L20.5767 22.3937ZM19.6778 22.103L16.9645 21.25L18.2116 23.8025L19.6778 22.103Z" fill="#02E4C0"></path><path fill-rule="evenodd" clip-rule="evenodd" d="M15.662 28.2971L17.7912 28.1659L18.4132 27.1457L16.0218 27.297C16.0967 26.8628 16.057 26.4688 15.8956 26.1105C15.7298 25.7595 15.4596 25.4648 15.0734 25.2293C14.7018 25.0027 14.3205 24.8902 13.9443 24.9007C13.568 24.9112 13.2056 25.0301 12.86 25.2692C12.5143 25.5083 12.2059 25.85 11.9349 26.2946L10.6553 28.3932L15.7563 31.5033L16.3339 30.556L14.8473 29.6496L15.5493 28.4983C15.6026 28.4108 15.6426 28.3453 15.662 28.2971ZM13.5453 26.0469C13.8491 25.9422 14.1635 25.984 14.4914 26.1839C14.8193 26.3839 15.0004 26.6442 15.0465 26.9622C15.0998 27.2846 14.9962 27.6512 14.7429 28.0666L14.0676 29.1742L12.0345 27.9346L12.7098 26.827C12.9631 26.4116 13.2416 26.1516 13.5453 26.0469Z" fill="#02E4C0"></path><path d="M14.3514 32.2777L15.2141 32.6258L13.5375 36.781L7.99721 34.5456L9.6291 30.5011L10.4918 30.8492L9.27507 33.8647L10.7156 34.446L11.795 31.7708L12.6418 32.1125L11.5624 34.7877L13.09 35.404L14.3514 32.2777Z" fill="#02E4C0"></path><path d="M6.72603 39.2341L6.45996 40.3112L12.2599 41.7439L13.2751 37.6342L12.3637 37.4091L11.6146 40.4416L6.72603 39.2341Z" fill="#02E4C0"></path><path d="M11.1185 42.8801L12.0448 42.9667L11.6276 47.428L5.6792 46.8717L6.08529 42.5294L7.01154 42.616L6.70876 45.8536L8.25533 45.9983L8.52394 43.126L9.43319 43.2111L9.16458 46.0833L10.8046 46.2367L11.1185 42.8801Z" fill="#02E4C0"></path><path d="M11.5409 52.5225C11.7785 52.0177 11.8679 51.4723 11.8246 50.8679C11.7899 50.3826 11.6725 49.9375 11.473 49.5411C11.2741 49.1532 11.0028 48.8303 10.6592 48.5725L10.0294 49.3363C10.5287 49.737 10.8048 50.2477 10.8499 50.8777C10.8791 51.2863 10.8117 51.6591 10.656 51.9954C10.5004 52.3317 10.2718 52.6047 9.96963 52.806C9.66744 53.0073 9.30808 53.1272 8.90797 53.1558C8.50786 53.1844 8.13511 53.117 7.80733 52.9607C7.47956 52.8045 7.2059 52.5674 7.00398 52.2567C6.80206 51.946 6.69073 51.586 6.66149 51.1774C6.61642 50.5475 6.8085 50.0032 7.24564 49.5355L6.52195 48.8686C6.21856 49.1726 5.99605 49.5308 5.85442 49.9431C5.71279 50.3554 5.65995 50.8127 5.69467 51.2979C5.73792 51.9024 5.90399 52.4295 6.20262 52.8959C6.50975 53.3616 6.89471 53.7191 7.38303 53.9666C7.87134 54.214 8.40038 54.313 8.98777 54.271C9.57517 54.229 10.0847 54.0556 10.5328 53.7412C10.9815 53.4352 11.3117 53.0266 11.5409 52.5225Z" fill="#02E4C0"></path><path d="M12.6852 56.8552C12.8272 57.4444 12.8286 57.9971 12.677 58.534C12.5337 59.0689 12.2752 59.5262 11.8828 59.9017C11.4924 60.2854 11.0182 60.5401 10.4457 60.678C9.87321 60.8159 9.33509 60.8051 8.81277 60.6412C8.29045 60.4773 7.85202 60.1879 7.47257 59.7789C7.10142 59.3679 6.85104 58.8752 6.70913 58.2861C6.59519 57.8131 6.57223 57.3534 6.64424 56.9234C6.71624 56.4935 6.87692 56.1036 7.12626 55.7538L7.94965 56.2929C7.59523 56.826 7.49512 57.3944 7.64303 58.0084C7.73898 58.4067 7.9079 58.7435 8.1581 59.0168C8.4083 59.2902 8.71718 59.4791 9.06616 59.5794C9.41514 59.6797 9.79391 59.685 10.1839 59.5911C10.5739 59.4971 10.9087 59.3199 11.1737 59.0717C11.4387 58.8235 11.6194 58.5166 11.7177 58.1593C11.816 57.8021 11.8213 57.4233 11.7254 57.025C11.5774 56.411 11.2212 55.9525 10.6629 55.6393L11.1588 54.7824C11.54 54.9803 11.8606 55.2542 12.1205 55.6042C12.3824 55.9625 12.5713 56.3823 12.6852 56.8552Z" fill="#02E4C0"></path><path fill-rule="evenodd" clip-rule="evenodd" d="M13.998 65.1471L12.8189 62.4024L13.8534 61.3078L13.3953 60.2413L8.97061 65.0774L9.40181 66.0812L15.9522 66.1932L15.5008 65.1424L13.998 65.1471ZM10.209 65.1492L12.1639 63.0833L13.0499 65.1456L10.209 65.1492Z" fill="#02E4C0"></path><path d="M15.6867 70.1574L17.9075 70.0674L18.4579 70.828L16.7452 70.9506L18.2862 73.0803L17.657 73.5356L16.116 71.4059L15.4709 72.9894L14.9205 72.2288L15.6867 70.1574Z" fill="#02E4C0"></path><path d="M21.1423 74.1044L18.9544 74.4966L18.478 76.6531L19.127 77.3315L19.55 75.6748L21.3672 77.5743L21.9284 77.0375L20.1113 75.1379L21.7912 74.7828L21.1423 74.1044Z" fill="#02E4C0"></path><path d="M24.9203 77.6808L22.8073 78.3703L22.6321 80.5719L23.3683 81.1545L23.5594 79.4554L25.6206 81.0868L26.1026 80.4778L24.0414 78.8464L25.6565 78.2635L24.9203 77.6808Z" fill="#02E4C0"></path><path d="M65.0677 11.7063L65.8454 10.0631L68.7846 11.4541L69.1825 10.6132L65.2404 8.7476L62.6848 14.1477L63.6877 14.6223L64.6661 12.5549L67.2736 13.7889L67.6752 12.9403L65.0677 11.7063Z" fill="#02E4C0"></path><path d="M70.8699 11.5697L71.7932 12.1849L69.0011 16.3754L71.6006 18.1074L71.08 18.8887L67.5572 16.5414L70.8699 11.5697Z" fill="#02E4C0"></path><path fill-rule="evenodd" clip-rule="evenodd" d="M72.7889 19.8782C72.9633 20.4082 73.2861 20.8772 73.7331 21.2863C74.1801 21.6954 74.6758 21.9755 75.219 22.1025C75.7565 22.2358 76.2818 22.2307 76.8065 22.0746C77.3312 21.9185 77.7835 21.6267 78.1811 21.1923C78.5787 20.7579 78.8295 20.2816 78.9386 19.7452C79.0478 19.2088 79.0065 18.685 78.832 18.1551C78.6518 17.6315 78.329 17.1625 77.882 16.7534C77.435 16.3442 76.9394 16.0641 76.4019 15.9308C75.8587 15.8038 75.3333 15.8089 74.8086 15.965C74.2839 16.1212 73.8259 16.4193 73.4341 16.8474C73.0422 17.2755 72.7915 17.7517 72.6823 18.2882C72.5731 18.8246 72.6086 19.3546 72.7889 19.8782ZM75.3677 21.0932C75.0137 21.0122 74.6859 20.8394 74.39 20.5686C74.0941 20.2977 73.8931 19.9865 73.7812 19.641C73.6692 19.2956 73.6475 18.9402 73.7342 18.5799C73.8152 18.226 73.988 17.8982 74.2588 17.6023C74.5297 17.3064 74.8409 17.1053 75.1921 16.9871C75.5375 16.8752 75.8993 16.8592 76.2532 16.9402C76.6072 17.0212 76.9292 17.2002 77.2251 17.4711C77.521 17.7419 77.7278 18.0469 77.8398 18.3923C77.9517 18.7377 77.9677 19.0995 77.8867 19.4534C77.7999 19.8137 77.6272 20.1415 77.3563 20.4374C77.0855 20.7333 76.7742 20.9343 76.4288 21.0462C76.0776 21.1645 75.7216 21.1742 75.3677 21.0932Z" fill="#02E4C0"></path><path d="M86.7955 27.8577L80.7597 29.6416L80.0875 28.6744L82.875 24.9388L78.3875 26.2286L77.7104 25.2545L81.486 20.2188L82.1436 21.1649L79.2628 24.9758L83.8728 23.6528L84.4574 24.4938L81.5702 28.3403L86.1915 26.9887L86.7955 27.8577Z" fill="#02E4C0"></path><path fill-rule="evenodd" clip-rule="evenodd" d="M87.1895 38.4195C87.3627 38.1553 87.4522 37.8558 87.4528 37.505C87.6495 37.6915 87.8706 37.816 88.1323 37.8731C88.394 37.9302 88.6585 37.9145 88.9421 37.8204C89.4038 37.6674 89.7012 37.371 89.8477 36.9178C89.9861 36.4673 89.9465 35.9139 89.7236 35.2415L88.8426 32.5844L83.1718 34.4644L84.1065 37.2836C84.3455 38.0046 84.6659 38.5098 85.0594 38.802C85.453 39.0941 85.8874 39.1569 86.3816 38.993C86.7381 38.8749 87.0083 38.6864 87.1895 38.4195ZM86.8019 34.4298L88.3655 33.9115L88.8596 35.4021C88.9805 35.7666 89.0097 36.0717 88.9472 36.3172C88.874 36.5572 88.7118 36.7189 88.4525 36.8049C88.2014 36.8881 87.9747 36.8554 87.7807 36.7039C87.5758 36.547 87.417 36.285 87.2961 35.9204L86.8019 34.4298ZM86.1351 37.8969C85.5923 38.0768 85.1826 37.7631 84.9113 36.9449L84.3473 35.2436L85.9837 34.7011L86.5477 36.4023C86.819 37.2205 86.6779 37.7169 86.1351 37.8969Z" fill="#02E4C0"></path><path d="M87.5526 42.7455L85.4731 43.0917L85.2909 41.9972L87.3536 41.6539L90.7988 38.7011L90.9936 39.8713L88.41 42.075L91.5709 43.3399L91.7503 44.4175L87.5526 42.7455Z" fill="#02E4C0"></path><path d="M88.9491 51.9308C89.2896 51.5433 89.4773 50.9275 89.512 50.0833L89.5355 49.5119L90.9117 49.6967L90.8061 52.2635L91.7356 52.3017L91.8798 48.7969L88.6435 48.3562L88.5842 49.7974C88.56 50.3858 88.4664 50.7919 88.3027 51.0329C88.1308 51.265 87.8957 51.3749 87.5887 51.3623C87.3073 51.3507 87.0901 51.2307 86.9372 51.0023C86.7847 50.7654 86.7121 50.4549 86.7282 50.0627C86.7419 49.7301 86.806 49.4167 86.9295 49.1142C87.0448 48.8029 87.2007 48.5446 87.3889 48.3302L86.5469 47.8258C86.3225 48.0899 86.1383 48.4154 86.0024 48.8113C85.858 49.2068 85.7814 49.6137 85.7639 50.0401C85.7425 50.5602 85.8099 50.9987 85.966 51.3553C86.1222 51.7119 86.3415 51.9858 86.6241 52.1768C86.9067 52.3678 87.2272 52.4664 87.5854 52.4811C88.1482 52.5043 88.6 52.3179 88.9491 51.9308Z" fill="#02E4C0"></path><path fill-rule="evenodd" clip-rule="evenodd" d="M85.1479 55.4778C85.2364 55.0081 85.4329 54.6109 85.7457 54.2878C86.0501 53.963 86.4493 53.7343 86.9501 53.6116C87.4425 53.4873 87.9999 53.4794 88.6289 53.598C89.2579 53.7166 89.7741 53.9268 90.1959 54.2234C90.6093 54.5185 90.8978 54.8769 91.0714 55.2918C91.2367 55.705 91.2751 56.1465 91.1865 56.6162C91.098 57.0859 90.9015 57.4831 90.5955 57.8162C90.2827 58.1394 89.8835 58.3681 89.3911 58.4924C88.8903 58.6151 88.333 58.623 87.7039 58.5044C87.0749 58.3858 86.5587 58.1756 86.1453 57.8805C85.7236 57.5839 85.4351 57.2255 85.2698 56.8122C85.0977 56.389 85.0594 55.9475 85.1479 55.4778ZM86.0956 55.6565C86.0166 56.0758 86.1294 56.4445 86.4275 56.7526C86.7255 57.0606 87.2233 57.2761 87.9111 57.4057C88.5988 57.5354 89.1409 57.516 89.5306 57.3376C89.9204 57.1592 90.1597 56.8569 90.2388 56.4375C90.3163 56.0266 90.2018 55.6663 89.9038 55.3582C89.6058 55.0502 89.1095 54.8264 88.4218 54.6967C87.734 54.5671 87.1903 54.5948 86.8006 54.7732C86.4109 54.9516 86.1731 55.2455 86.0956 55.6565Z" fill="#02E4C0"></path><path fill-rule="evenodd" clip-rule="evenodd" d="M87.5259 60.1133C87.1528 60.255 86.8883 60.5198 86.7371 60.9189C86.586 61.318 86.6058 61.6996 86.7915 62.0529C86.9771 62.4061 87.299 62.6648 87.7619 62.8401C88.2248 63.0154 88.6373 63.0347 89.0184 62.8961C89.3834 62.7514 89.651 62.4785 89.8021 62.0795C89.9532 61.6804 89.9305 61.3067 89.7448 60.9535C89.5591 60.6003 89.2293 60.3385 88.7744 60.1662C88.3194 59.994 87.8989 59.9717 87.5259 60.1133ZM87.3579 61.738C87.2356 61.5548 87.2143 61.346 87.2959 61.1305C87.3744 60.9229 87.5257 60.7886 87.7466 60.7353C87.9626 60.6711 88.2262 60.6979 88.5296 60.8128C88.8329 60.9276 89.0481 61.0821 89.1754 61.2763C89.2977 61.4595 89.322 61.6604 89.2434 61.8679C89.1618 62.0834 89.0075 62.2258 88.7946 62.282C88.5816 62.3383 88.321 62.3035 88.0097 62.1856C87.6984 62.0677 87.4801 61.9212 87.3579 61.738Z" fill="#02E4C0"></path><path d="M88.1807 66.1928L88.4769 65.4106L84.3343 59.4798L84.0382 60.262L88.1807 66.1928Z" fill="#02E4C0"></path><path fill-rule="evenodd" clip-rule="evenodd" d="M83.5047 62.7796C83.1316 62.9212 82.8671 63.1861 82.716 63.5852C82.5649 63.9843 82.5876 64.3579 82.7703 64.7191C82.9559 65.0723 83.2858 65.3341 83.7407 65.5064C84.1957 65.6786 84.6161 65.701 84.9892 65.5593C85.3653 65.4097 85.6298 65.1448 85.7809 64.7457C85.9321 64.3466 85.9093 63.973 85.7236 63.6198C85.5379 63.2665 85.2081 63.0048 84.7532 62.8325C84.2982 62.6602 83.8777 62.6379 83.5047 62.7796ZM83.3477 64.3993C83.2174 64.2131 83.1931 64.0122 83.2747 63.7967C83.3563 63.5812 83.5076 63.4469 83.7205 63.3906C83.9335 63.3343 84.1971 63.3611 84.5084 63.479C84.8197 63.5969 85.0349 63.7514 85.1572 63.9346C85.2795 64.1178 85.3038 64.3186 85.2222 64.5342C85.1406 64.7497 84.9894 64.884 84.7764 64.9403C84.5555 64.9935 84.2918 64.9667 83.9885 64.8519C83.6852 64.737 83.47 64.5825 83.3477 64.3993Z" fill="#02E4C0"></path><path d="M80.4391 72.2272L79.5887 70.1736L80.1129 69.3947L80.8186 70.9601L82.2862 68.7792L82.9305 69.2128L81.4629 71.3937L83.1717 71.4532L82.6476 72.2321L80.4391 72.2272Z" fill="#02E4C0"></path><path d="M76.3248 74.2072L76.8839 76.3585L79.0706 76.6678L79.6972 75.9686L78.0129 75.6741L79.7672 73.7164L79.1888 73.1981L77.4345 75.1558L76.9513 73.5081L76.3248 74.2072Z" fill="#02E4C0"></path><path d="M72.7992 79.9485L72.54 77.7409L73.2564 77.1341L73.5093 78.8325L75.5152 77.1335L76.0171 77.7262L74.0112 79.4251L75.6393 79.9476L74.9229 80.5544L72.7992 79.9485Z" fill="#02E4C0"></path><path d="M54.6344 86.685C54.2545 86.3871 53.8357 86.2658 53.3697 86.3222C52.8783 86.3817 52.4826 86.5929 52.1847 86.9728C51.8773 87.3453 51.7571 87.7725 51.8155 88.2555C51.874 88.7385 52.0937 89.1331 52.4736 89.431C52.8536 89.7289 53.2808 89.8491 53.7553 89.7917C54.2382 89.7333 54.6244 89.5146 54.9223 89.1346C55.2287 88.7537 55.3489 88.3265 55.2905 87.8435C55.233 87.369 55.0143 86.9829 54.6344 86.685Z" fill="#02E4C0"></path><path d="M48.3226 86.5903C48.792 86.5966 49.1908 86.7728 49.5275 87.1188C49.8642 87.4647 50.0294 87.8767 50.0229 88.3546C50.0163 88.841 49.84 89.2483 49.4855 89.5849C49.1395 89.9217 48.7276 90.0868 48.2411 90.0802C47.7632 90.0737 47.3559 89.8975 47.0192 89.5515C46.6825 89.2055 46.5175 88.785 46.5241 88.2986C46.5307 87.8121 46.7069 87.4048 47.0613 87.0767C47.4073 86.74 47.8277 86.5836 48.3226 86.5903Z" fill="#02E4C0"></path><path d="M44.4096 86.876C44.1216 86.4885 43.7497 86.2611 43.2853 86.1927C42.7956 86.1205 42.3582 86.22 41.9707 86.508C41.576 86.7862 41.3474 87.1667 41.2765 87.6479C41.2055 88.1292 41.3135 88.5678 41.6014 88.9553C41.8894 89.3429 42.2698 89.5714 42.7426 89.6411C43.2239 89.712 43.6541 89.6029 44.0416 89.3149C44.4376 89.0282 44.6662 88.6478 44.7371 88.1665C44.8067 87.6937 44.6976 87.2635 44.4096 86.876Z" fill="#02E4C0"></path><path d="M48.5094 81.6093C66.7916 81.6093 81.6122 66.7887 81.6122 48.5065C81.6122 30.2244 66.7916 15.4038 48.5094 15.4038C30.2273 15.4038 15.4067 30.2244 15.4067 48.5065C15.4067 66.7887 30.2273 81.6093 48.5094 81.6093Z" stroke="#4452FE" stroke-width="0.997316" stroke-miterlimit="1.5" stroke-linecap="round" stroke-linejoin="round"></path><path d="M48.5099 95.9998C74.7362 95.9998 95.9968 74.7391 95.9968 48.5128C95.9968 22.2865 74.7362 1.02588 48.5099 1.02588C22.2836 1.02588 1.02295 22.2865 1.02295 48.5128C1.02295 74.7391 22.2836 95.9998 48.5099 95.9998Z" stroke="#4452FE" stroke-width="0.997316" stroke-miterlimit="1.5" stroke-linecap="round" stroke-linejoin="round"></path><path d="M49.0269 30.8284L54.4506 41.8772L66.5792 43.6598L57.8031 52.2553L59.8742 64.3983L49.0269 58.6621L38.1796 64.3983L40.2508 52.2553L31.4746 43.6598L43.6032 41.8772L49.0269 30.8284Z" fill="#181818" stroke="white" stroke-width="0.997316" stroke-linecap="round" stroke-linejoin="round"></path></svg><svg viewBox="0 0 31 31" fill="none" id="facebook"><path d="M28.42 2.95508H3.58C2.98263 2.95508 2.5 3.4377 2.5 4.03508V28.8751C2.5 29.4725 2.98263 29.9551 3.58 29.9551H28.42C29.0174 29.9551 29.5 29.4725 29.5 28.8751V4.03508C29.5 3.4377 29.0174 2.95508 28.42 2.95508ZM25.3015 10.8357H23.1449C21.454 10.8357 21.1266 11.639 21.1266 12.8202V15.4223H25.1631L24.6366 19.496H21.1266V29.9551H16.918V19.4993H13.3979V15.4223H16.918V12.4186C16.918 8.9322 19.0476 7.03208 22.1594 7.03208C23.6511 7.03208 24.9303 7.14345 25.3049 7.19408V10.8357H25.3015Z" fill="white"></path></svg><svg viewBox="0 0 50 50" fill="none" id="ic_round-restaurant-menu"><path d="M19.7275 26.8016L23.2797 22.9748L15.5101 14.6181C14.9076 13.9691 13.8658 14.1449 13.4892 14.9832C12.598 16.998 12.9244 19.4726 14.4683 21.1493L19.7275 26.8016ZM28.2377 24.3541C30.1581 25.3141 32.8567 24.638 34.8525 22.488C37.2499 19.9053 37.7143 16.2002 35.8692 14.2125C34.0366 12.2382 30.5974 12.725 28.1874 15.3078C26.1917 17.4578 25.5641 20.365 26.4553 22.4339L15.0833 34.685C14.8486 34.9378 14.7168 35.2807 14.7168 35.6383C14.7168 35.9959 14.8486 36.3388 15.0833 36.5916C15.318 36.8444 15.6363 36.9865 15.9682 36.9865C16.3001 36.9865 16.6184 36.8444 16.8531 36.5916L24.6227 28.2484L32.3798 36.6051C32.496 36.7303 32.6339 36.8296 32.7858 36.8974C32.9376 36.9651 33.1003 37 33.2647 37C33.429 37 33.5917 36.9651 33.7436 36.8974C33.8954 36.8296 34.0334 36.7303 34.1496 36.6051C34.2658 36.4799 34.358 36.3313 34.4209 36.1677C34.4837 36.0042 34.5161 35.8289 34.5161 35.6518C34.5161 35.4748 34.4837 35.2995 34.4209 35.1359C34.358 34.9723 34.2658 34.8237 34.1496 34.6985L26.3925 26.3418L28.2377 24.3541Z" fill="#02E4C0"></path></svg><svg viewBox="0 0 31 31" fill="none" id="inkedin"><path d="M28.42 2.95508H3.58C2.98263 2.95508 2.5 3.4377 2.5 4.03508V28.8751C2.5 29.4725 2.98263 29.9551 3.58 29.9551H28.42C29.0174 29.9551 29.5 29.4725 29.5 28.8751V4.03508C29.5 3.4377 29.0174 2.95508 28.42 2.95508ZM10.5089 25.9625H6.50275V13.0767H10.5089V25.9625ZM8.5075 11.315C8.04825 11.315 7.59932 11.1788 7.21747 10.9236C6.83562 10.6685 6.538 10.3058 6.36225 9.88154C6.18651 9.45725 6.14052 8.99038 6.23012 8.53995C6.31971 8.08953 6.54086 7.67579 6.8656 7.35105C7.19034 7.02631 7.60408 6.80516 8.0545 6.71557C8.50492 6.62597 8.9718 6.67196 9.39609 6.8477C9.82038 7.02345 10.183 7.32107 10.4382 7.70292C10.6933 8.08477 10.8295 8.5337 10.8295 8.99295C10.8261 10.2755 9.78663 11.315 8.5075 11.315ZM25.5074 25.9625H21.5046V19.6951C21.5046 18.2 21.4776 16.2796 19.4223 16.2796C17.3399 16.2796 17.0193 17.9063 17.0193 19.5871V25.9625H13.0199V13.0767H16.8606V14.8385H16.9146C17.4479 13.826 18.754 12.7561 20.7048 12.7561C24.7615 12.7561 25.5074 15.4257 25.5074 18.8952V25.9625Z" fill="white"></path></svg><svg viewBox="0 0 48 52" fill="none" id="logos_airbnb"><g clip-path="url(#logos_airbnb_0)"><path d="M44.2027 41.7312C43.8483 44.3817 42.0761 46.6752 39.595 47.6945C38.3796 48.2036 37.0633 48.3569 35.7465 48.2036C34.4808 48.0509 33.2148 47.6431 31.8984 46.8794C30.0753 45.8591 28.2524 44.2799 26.1259 41.9354C29.468 37.8073 31.4929 34.0359 32.2527 30.6729C32.6073 29.0928 32.6578 27.6657 32.5061 26.3405C32.3038 25.0666 31.8479 23.894 31.1387 22.8749C29.569 20.5817 26.9362 19.2565 23.9993 19.2565C21.0623 19.2565 18.4294 20.6327 16.8597 22.8749C16.1505 23.8941 15.6953 25.0666 15.4925 26.3405C15.2902 27.6657 15.3406 29.1436 15.7458 30.6731C16.5052 34.0357 18.5811 37.8583 21.8727 41.9856C19.7966 44.3307 17.9231 45.9104 16.1 46.9299C14.7836 47.6945 13.5176 48.1023 12.2519 48.2546C10.9471 48.4013 9.62638 48.2266 8.40355 47.7455C5.92229 46.7262 4.15042 44.432 3.79572 41.782C3.64407 40.5083 3.74523 39.2344 4.25158 37.8073C4.40323 37.2973 4.65677 36.7886 4.90958 36.1766C5.26429 35.3616 5.66948 34.4946 6.07412 33.6279L6.12516 33.5267C9.61858 25.9327 13.3659 18.1864 17.2649 10.6441L17.4167 10.3377C17.8219 9.57404 18.2266 8.75896 18.6321 7.99415C19.0369 7.17852 19.4926 6.41389 20.0495 5.75089C21.1128 4.52763 22.5307 3.86518 24.1005 3.86518C25.6702 3.86518 27.0879 4.52763 28.1513 5.75107C28.7083 6.41389 29.164 7.17852 29.5692 7.99433C29.9743 8.75896 30.379 9.57404 30.7842 10.3377L30.9366 10.6441C34.7845 18.2372 38.5318 25.9835 42.0256 33.5775V33.6279C42.4308 34.4436 42.785 35.3616 43.1902 36.1766C43.4435 36.7886 43.6965 37.2972 43.8482 37.8073C44.2534 39.1322 44.4052 40.4069 44.2029 41.7312H44.2027ZM23.9993 39.3357C21.2652 35.8706 19.4926 32.6087 18.8851 29.8574C18.6323 28.685 18.5811 27.6657 18.7335 26.7483C18.8344 25.9327 19.1386 25.2188 19.5431 24.6068C20.5053 23.2321 22.1255 22.3641 23.9993 22.3641C25.8729 22.3641 27.5438 23.1803 28.4551 24.6068C28.8599 25.2188 29.164 25.9327 29.2651 26.7483C29.417 27.6657 29.3663 28.7358 29.1133 29.8574C28.5058 32.5582 26.7334 35.8198 23.9993 39.3357ZM46.8358 36.6859C46.5828 36.0743 46.3294 35.412 46.0764 34.8514C45.6712 33.9345 45.2661 33.0675 44.9115 32.2519L44.8609 32.2014C41.3674 24.5564 37.6201 16.8101 33.6705 9.16678L33.5188 8.86004C33.1136 8.09559 32.7084 7.27996 32.3038 6.4647C31.7971 5.54689 31.2905 4.57955 30.4807 3.66155C28.8598 1.62303 26.531 0.501953 24.0496 0.501953C21.5178 0.501953 19.2394 1.62303 17.5682 3.5601C16.809 4.47718 16.252 5.44544 15.7457 6.36344C15.3405 7.17852 14.9353 7.99415 14.5303 8.75896L14.3784 9.06385C10.4798 16.7083 6.682 24.4551 3.18802 32.0996L3.13754 32.2014C2.78283 33.0165 2.37764 33.8826 1.97245 34.8006C1.70157 35.4046 1.4484 36.0165 1.21329 36.6355C0.554739 38.5206 0.352419 40.3047 0.605411 42.139C1.1628 45.9614 3.69456 49.1726 7.18835 50.5991C8.50453 51.1601 9.87175 51.4147 11.2898 51.4147C11.6948 51.4147 12.2012 51.3637 12.6064 51.3124C14.2771 51.1082 15.9986 50.5487 17.6693 49.5798C19.7458 48.4078 21.7207 46.7262 23.9484 44.2799C26.1762 46.7262 28.2018 48.4079 30.2272 49.5798C31.8984 50.5487 33.6198 51.1082 35.2907 51.3124C35.6959 51.3637 36.2022 51.4147 36.6072 51.4147C38.0251 51.4147 39.4426 51.1601 40.7087 50.5991C44.2532 49.1726 46.7343 45.9106 47.2913 42.139C47.6965 40.3549 47.4936 38.5722 46.8356 36.6857L46.8358 36.6859Z" fill="#E0565B"></path></g><defs><clipPath id="logos_airbnb_0"><rect width="47" height="51" fill="white" transform="translate(0.5 0.501953)"></rect></clipPath></defs></svg><svg viewBox="0 0 61 72" fill="none" id="logos_android-icon"><g clip-path="url(#logos_android-icon_0)"><path d="M18.8724 1.15634C18.529 1.15856 18.1915 1.24627 17.8904 1.41158C16.9018 1.95955 16.5392 3.22963 17.087 4.21752L19.3189 8.24783C13.9414 11.5748 10.3782 17.2579 10.3782 23.7442V24.9494C9.34531 23.7611 7.82727 23.0109 6.13109 23.0109C3.02328 23.0109 0.5 25.5342 0.5 28.6417V45.9876C0.5 49.0949 3.02352 51.6185 6.13109 51.6185C7.82727 51.6185 9.34531 50.868 10.378 49.6797V52.1095C10.378 55.3853 13.0585 58.0657 16.3344 58.0657H17.8456V65.782C17.8456 68.8898 20.3691 71.4131 23.4767 71.4131C26.5843 71.4131 29.1076 68.8895 29.1076 65.782V58.0657H31.7223V65.782C31.7223 68.8898 34.2458 71.4131 37.3534 71.4131C40.4609 71.4131 42.9842 68.8895 42.9842 65.782V58.0657H44.4957C47.7713 58.0657 50.4519 55.3853 50.4519 52.1095V49.6797C51.4845 50.868 53.0028 51.6185 54.699 51.6185C57.8066 51.6185 60.3298 49.0949 60.3298 45.9876V28.6417C60.3298 25.5342 57.8066 23.0109 54.699 23.0109C53.0028 23.0109 51.4845 23.7611 50.4519 24.9494V23.9481V23.8907C50.4523 23.8298 50.4519 23.781 50.4519 23.7442C50.4519 17.2591 46.8805 11.5816 41.5048 8.25439L43.7431 4.21752C44.2906 3.22963 43.9283 1.95955 42.9397 1.41158C42.6386 1.24627 42.3011 1.15856 41.9577 1.15634C41.2276 1.14931 40.5111 1.53416 40.1338 2.21502L37.7933 6.44314C35.5048 5.59869 33.0148 5.1358 30.4152 5.1358C27.8178 5.1358 25.3231 5.59377 23.0366 6.43658L20.6963 2.21502C20.3188 1.53416 19.6025 1.14978 18.8724 1.15634Z" fill="white"></path><path d="M6.13143 24.4775C3.81252 24.4775 1.96729 26.3228 1.96729 28.6417V45.9875C1.96729 48.3065 3.81252 50.1517 6.13143 50.1517C8.45033 50.1517 10.2958 48.3065 10.2958 45.9875V28.6417C10.2958 26.3228 8.45033 24.4775 6.13143 24.4775ZM54.6996 24.4775C52.3804 24.4775 50.5352 26.3228 50.5352 28.6417V45.9875C50.5352 48.3065 52.3804 50.1517 54.6996 50.1517C57.0185 50.1517 58.8637 48.3065 58.8637 45.9875V28.6417C58.8637 26.3228 57.0185 24.4775 54.6996 24.4775Z" fill="#A4C639"></path><path d="M23.4769 44.272C21.158 44.272 19.3125 46.1172 19.3125 48.4363V65.782C19.3125 68.1009 21.158 69.9461 23.4769 69.9461C25.7958 69.9461 27.641 68.1009 27.641 65.782V48.4363C27.641 46.1172 25.7958 44.272 23.4769 44.272ZM37.3535 44.272C35.0344 44.272 33.1891 46.1172 33.1891 48.4363V65.782C33.1891 68.1009 35.0344 69.9461 37.3535 69.9461C39.6724 69.9461 41.5177 68.1009 41.5177 65.782V48.4363C41.5177 46.1172 39.6724 44.272 37.3535 44.272Z" fill="#A4C639"></path><path d="M18.8849 2.62313C18.7864 2.62432 18.6898 2.65061 18.6043 2.69954C18.3074 2.86407 18.2099 3.20532 18.3747 3.50297L21.3083 8.80242C15.6646 11.7391 11.8522 17.3198 11.8447 23.7248H48.985C48.9772 17.3198 45.1651 11.7389 39.5214 8.80242L42.4548 3.50321C42.6198 3.20555 42.5221 2.86407 42.2251 2.69954C42.1396 2.65058 42.0431 2.62428 41.9446 2.62313C41.7336 2.62079 41.5342 2.72625 41.4217 2.92922L38.4498 8.28586C36.0189 7.20774 33.2922 6.60235 30.4147 6.60235C27.5373 6.60235 24.8108 7.2075 22.3797 8.28586L19.4078 2.92922C19.3571 2.83519 19.2815 2.75691 19.1894 2.70292C19.0972 2.64894 18.9919 2.62134 18.8851 2.62313H18.8849ZM11.8447 25.1916V52.1095C11.8435 52.6994 11.9587 53.2838 12.1839 53.829C12.4091 54.3743 12.7397 54.8697 13.1569 55.2868C13.574 55.7039 14.0694 56.0345 14.6147 56.2597C15.1599 56.4848 15.7443 56.6 16.3342 56.5987H44.4955C45.0854 56.6 45.6698 56.4848 46.2151 56.2596C46.7604 56.0345 47.2558 55.7038 47.6729 55.2867C48.0901 54.8696 48.4207 54.3741 48.6459 53.8289C48.871 53.2836 48.9863 52.6992 48.985 52.1093V25.1918H11.8447V25.1916Z" fill="#A4C639"></path><path d="M21.8441 13.8276C20.9964 13.8276 20.2944 14.5294 20.2944 15.3771C20.2944 16.2251 20.9964 16.9268 21.8441 16.9268C22.6921 16.9268 23.3938 16.2251 23.3938 15.3771C23.3938 14.5294 22.6921 13.8276 21.8441 13.8276ZM38.9858 13.8276C38.1379 13.8276 37.4361 14.5294 37.4361 15.3771C37.4361 16.2251 38.1379 16.9268 38.9858 16.9268C39.8336 16.9268 40.5355 16.2251 40.5355 15.3771C40.5355 14.5294 39.8336 13.8276 38.9858 13.8276Z" fill="white"></path></g><defs><clipPath id="logos_android-icon_0"><rect width="60" height="70.5469" fill="white" transform="translate(0.5 0.955078)"></rect></clipPath></defs></svg><svg viewBox="0 0 61 62" fill="none" id="logos_apiary"><g clip-path="url(#logos_apiary_3)"><path opacity="0.5" d="M30.4277 9.51766V26.763L45.3919 18.1225V0.876953L30.4277 9.51766Z" fill="#13A049"></path><path opacity="0.5" d="M30.4283 9.51766L15.4644 0.876953V18.1584L30.4283 26.7991V9.51766Z" fill="#A2CC39"></path><path opacity="0.9" d="M45.3922 0.876953L30.428 9.51766L15.4641 0.876953L0.5 9.51766L30.428 26.7991L60.3383 9.51766L45.3922 0.876953Z" fill="url(#logos_apiary_0)"></path><path d="M30.428 26.799L0.5 9.51758V26.799L15.4641 35.4397V52.7033L30.428 61.344L45.3922 52.7033V35.4397L60.3383 26.799V9.51758L30.428 26.799Z" fill="url(#logos_apiary_1)"></path><path d="M30.4277 26.799V61.344L45.3919 52.7033V35.4397L60.338 26.799V9.51758L30.4277 26.799Z" fill="url(#logos_apiary_2)"></path><path opacity="0.05" d="M30.4277 44.0625V61.3439L45.3919 52.7032L30.4277 44.0625Z" fill="#231F20"></path><path opacity="0.1" d="M30.4283 61.3801V44.0986L15.4644 52.7393L30.4283 61.3801Z" fill="#231F20"></path><path opacity="0.05" d="M15.4641 18.1582L0.5 26.7989L15.4641 35.4396L30.428 26.7989L15.4641 18.1582Z" fill="#231F20"></path><path opacity="0.05" d="M45.3919 18.1582L30.4277 26.7989L45.3919 35.4396L60.338 26.7989L45.3919 18.1582Z" fill="#231F20"></path></g><defs><linearGradient id="logos_apiary_0" x1="60.3455" y1="13.8357" x2="0.5" y2="13.8357" gradientUnits="userSpaceOnUse"><stop stop-color="#37BDA6"></stop><stop offset="1" stop-color="#8AD3B8"></stop></linearGradient><linearGradient id="logos_apiary_1" x1="60.3455" y1="35.4297" x2="0.5" y2="35.4297" gradientUnits="userSpaceOnUse"><stop offset="0.5" stop-color="#4BB6AD"></stop><stop offset="1" stop-color="#78BBC1"></stop></linearGradient><linearGradient id="logos_apiary_2" x1="30.4224" y1="35.4297" x2="60.3448" y2="35.4297" gradientUnits="userSpaceOnUse"><stop stop-color="#4379A7"></stop><stop offset="1" stop-color="#7CC9B8"></stop></linearGradient><clipPath id="logos_apiary_3"><rect width="60" height="60.7031" fill="white" transform="translate(0.5 0.876953)"></rect></clipPath></defs></svg><svg viewBox="0 0 61 61" fill="none" id="logos_apple-app-store"><g clip-path="url(#logos_apple-app-store_1)"><path d="M13.64 0.228516H47.36C54.6172 0.228516 60.5 6.11133 60.5 13.3685V47.0885C60.5 54.3457 54.6172 60.2285 47.36 60.2285H13.64C6.38281 60.2285 0.5 54.3457 0.5 47.0885V13.3685C0.5 6.11133 6.38281 0.228516 13.64 0.228516Z" fill="url(#logos_apple-app-store_0)"></path><path d="M19.7288 43.7775L19.7344 43.7794L17.683 47.3325C16.9341 48.6295 15.2757 49.0739 13.9787 48.3251C12.6819 47.5762 12.2372 45.9178 12.9861 44.6208L14.4973 42.0033L14.6424 41.752C14.9014 41.3798 15.5405 40.7372 16.819 40.8581C16.819 40.8581 19.8277 41.1846 20.0455 42.7484C20.0455 42.7484 20.075 43.2628 19.7288 43.7775ZM48.8248 34.7025H42.4278C41.9921 34.6732 41.802 34.5176 41.727 34.4271L41.7223 34.4189L34.8746 22.5581L34.8657 22.564L34.4551 21.9752C33.7819 20.9459 32.7132 23.5784 32.7132 23.5784C31.437 26.5118 32.8944 29.8467 33.4023 30.8548L42.9137 47.329C43.6623 48.6258 45.3207 49.0704 46.618 48.3213C47.9148 47.5725 48.3594 45.9141 47.6103 44.617L45.2321 40.4977C45.1859 40.3978 45.1058 40.1269 45.5935 40.1257H48.8248C50.3225 40.1257 51.5366 38.9116 51.5366 37.414C51.5366 35.9163 50.3225 34.7023 48.8248 34.7023V34.7025ZM36.3997 38.3887C36.3997 38.3887 36.7412 40.1257 35.42 40.1257H11.7718C10.2741 40.1257 9.06006 38.9116 9.06006 37.414C9.06006 35.9163 10.2741 34.7023 11.7718 34.7023H17.8515C18.833 34.6455 19.0655 34.0788 19.0655 34.0788L19.0712 34.0816L27.0071 20.336L27.0048 20.3355C27.1494 20.07 27.0289 19.819 27.008 19.7794L24.387 15.2398C23.6382 13.943 24.0826 12.2843 25.3796 11.5357C26.6766 10.7869 28.3351 11.231 29.0839 12.528L30.2994 14.6334L31.5127 12.5318C32.2616 11.235 33.92 10.7904 35.217 11.5394C36.5141 12.2883 36.9584 13.9465 36.2096 15.2435L25.1663 34.3709C25.118 34.4873 25.1033 34.6702 25.4626 34.7023H32.0635L32.0649 34.7667C32.0649 34.7667 35.8801 34.826 36.3997 38.3887Z" fill="white"></path></g><defs><linearGradient id="logos_apple-app-store_0" x1="30.5" y1="0.228516" x2="30.5" y2="60.2285" gradientUnits="userSpaceOnUse"><stop stop-color="#17C9FB"></stop><stop offset="1" stop-color="#1A74E8"></stop></linearGradient><clipPath id="logos_apple-app-store_1"><rect width="60" height="60" fill="white" transform="translate(0.5 0.228516)"></rect></clipPath></defs></svg><svg viewBox="0 0 57 46" fill="none" id="logos_basecamp"><g clip-path="url(#logos_basecamp_0)"><path d="M28.5658 0.00195312C13.5508 0.00195312 1.78732 18.862 0.674316 34.7913C5.38619 42.8647 16.7487 45.8994 28.5663 45.8994C40.3829 45.8994 51.7461 42.8647 56.4556 34.7911C55.3423 18.862 43.5804 0.00195312 28.566 0.00195312" fill="#B6DEFF"></path><path d="M52.5317 30.9971C52.5317 30.9971 49.2154 23.9187 45.8447 19.789C42.4716 15.6577 38.3523 11.1592 35.9168 11.1592C33.4825 11.1592 26.6776 23.054 23.5559 23.054C20.4334 23.054 18.8107 17.6618 14.9719 17.6618C11.1315 17.6618 5.03014 30.6647 5.03014 30.6647L4.6167 32.869C4.6167 32.869 6.73639 42.147 28.9119 42.147C51.0884 42.147 52.8607 33.0213 52.8607 33.0213L52.5319 30.9968" fill="#66CC66"></path><path d="M23.9035 28.1299C20.4595 28.1299 18.694 24.7751 17.7368 22.7043C16.876 20.8388 16.727 17.8935 14.2847 17.811C14.5246 17.717 14.7556 17.6615 14.9722 17.6615C18.811 17.6615 20.4337 23.0537 23.5562 23.0537C26.6779 23.0537 33.4828 11.1587 35.9171 11.1587C36.3758 11.1587 36.8925 11.3185 37.4531 11.6027C37.0384 11.5487 36.5066 11.5863 36.0969 11.9921C35.31 12.7691 28.1672 28.1299 23.9035 28.1299Z" fill="#17AD49"></path></g><defs><clipPath id="logos_basecamp_0"><rect width="56" height="46" fill="white" transform="translate(0.5 0.00195312)"></rect></clipPath></defs></svg><svg viewBox="0 0 84 34" fill="none" id="logos_ibm"><g clip-path="url(#logos_ibm_0)"><path d="M0.5 0.501953V2.75754H16.6558V0.501953H0.5ZM18.9448 0.501953V2.75754H41.9676C41.9676 2.75754 39.6159 0.501953 36.5013 0.501953H18.9448ZM46.4839 0.501953V2.75754H60.4124L59.5856 0.501953H46.4839ZM70.3983 0.501953L69.5716 2.75754H83.3736V0.501953H70.3983ZM0.5 4.88854V7.14413H16.6558V4.88854H0.5ZM18.9448 4.89176V7.14413H44.6391C44.6391 7.14413 44.3391 5.40817 43.8156 4.89176H18.9448ZM46.4839 4.89176V7.14413H61.9395L61.1743 4.89176H46.4839ZM68.7448 4.89176L67.9797 7.14413H83.3736V4.89176H68.7448ZM5.14281 9.27512V11.5336H12.1395V9.27512H5.14281ZM23.5876 9.27512V11.5336H30.5843V9.27512H23.5876ZM37.3896 9.27512V11.5336H44.3862C44.3862 11.5336 44.8304 10.3408 44.8304 9.27496H37.3896V9.27512ZM51.1268 9.27512V11.5336H63.5314L62.7046 9.27496H51.1268V9.27512ZM67.221 9.27512L66.391 11.5338H78.8572V9.27512H67.221ZM5.14281 13.6649V15.9202H12.1395V13.6649H5.14281ZM23.5876 13.6649V15.9202H41.4586C41.4586 15.9202 42.9535 14.7628 43.4298 13.6646H23.5876V13.6649ZM51.1268 13.6649V15.9202H58.1234V14.6646L58.5676 15.9202H71.3839L71.8605 14.6646V15.9202H78.8572V13.6649H65.7231L65.026 15.5755L64.3257 13.6649H51.1268ZM5.14281 18.0512V20.3068H12.1395V18.0512H5.14281ZM23.5876 18.0512V20.3068H43.4298C42.9534 19.2121 41.4586 18.0512 41.4586 18.0512H23.5876ZM51.1268 18.0512V20.3068H58.1234V18.0512H51.1268ZM59.3943 18.0512L60.2405 20.3068H69.8504L70.6545 18.0512H59.3943ZM71.8605 18.0512V20.3068H78.8572V18.0512H71.8605ZM5.14281 22.4378V24.6934H12.1395V22.4378H5.14281ZM23.5876 22.4378V24.6934H30.5843V22.4378H23.5876ZM37.3896 22.4378V24.6934H44.8304C44.8304 23.6288 44.3862 22.4378 44.3862 22.4378H37.3896ZM51.1268 22.4378V24.6934H58.1234V22.4378H51.1268ZM60.983 22.4378L61.8033 24.6934H68.2455L69.0723 22.4378H60.983ZM71.8605 22.4378V24.6934H78.8572V22.4378H71.8605ZM0.626445 26.8245V29.0832H16.7823V26.8244H0.626445V26.8245ZM18.9448 26.8245V29.0832H43.8156C44.3391 28.566 44.6391 26.8244 44.6391 26.8244H18.9448V26.8245ZM46.6104 26.8245V29.0832H58.1234V26.8244H46.6104V26.8245ZM62.5749 26.8245L63.4179 29.0832H66.6957L67.4868 26.8244H62.5749V26.8245ZM71.8605 26.8245V29.0832H83.5V26.8244H71.8605V26.8245ZM0.626445 31.2142V33.4698H16.7823V31.2142H0.626445ZM18.9448 31.2142V33.4664H36.5013C39.6159 33.4664 41.9676 31.214 41.9676 31.214H18.9448V31.2142ZM46.6104 31.2142V33.4698H58.1234V31.2142H46.6104ZM64.1733 31.2142L64.9839 33.4632L65.1233 33.4664L65.9468 31.214H64.1733V31.2142ZM71.8605 31.2142V33.4698H83.5V31.2142H71.8605Z" fill="#1F70C1"></path></g><defs><clipPath id="logos_ibm_0"><rect width="83" height="33" fill="white" transform="translate(0.5 0.501953)"></rect></clipPath></defs></svg><svg viewBox="0 0 36 51" fill="none" id="map"><path d="M10.5 28.9551C13.809 28.9551 16.5 26.4883 16.5 23.4551C16.5 20.4218 13.809 17.9551 10.5 17.9551C7.191 17.9551 4.5 20.4218 4.5 23.4551C4.5 26.4883 7.191 28.9551 10.5 28.9551ZM10.5 20.7051C12.1545 20.7051 13.5 21.9385 13.5 23.4551C13.5 24.9717 12.1545 26.2051 10.5 26.2051C8.8455 26.2051 7.5 24.9717 7.5 23.4551C7.5 21.9385 8.8455 20.7051 10.5 20.7051Z" fill="#02E4C0"></path><path d="M9.70251 39.6949C9.93522 39.8641 10.214 39.9551 10.5 39.9551C10.786 39.9551 11.0648 39.8641 11.2975 39.6949C11.7155 39.3939 21.5398 32.1712 21.4999 23.1552C21.4999 16.9797 16.5651 11.9551 10.5 11.9551C4.43494 11.9551 -0.499879 16.9797 -0.499879 23.1482C-0.539754 32.1712 9.28451 39.3939 9.70251 39.6949ZM10.5 14.7551C15.0498 14.7551 18.7499 18.5225 18.7499 23.1622C18.7788 29.3754 12.7165 34.9545 10.5 36.7843C8.2849 34.9531 2.22122 29.3726 2.25009 23.1552C2.25009 18.5225 5.95018 14.7551 10.5 14.7551Z" fill="#02E4C0"></path></svg><svg viewBox="0 0 50 50" fill="none" id="mdi_alien-outline"><path d="M22.303 23.609C23.629 25.741 23.434 28.25 21.848 29.264C20.262 30.252 17.896 29.329 16.557 27.197C15.231 25.065 15.439 22.53 17.025 21.542C18.611 20.554 20.977 21.477 22.303 23.609ZM24.5 32.475C27.1 32.475 27.75 31.5 27.75 31.5C27.75 31.5 27.1 34.1 24.5 34.1C21.9 34.1 21.25 31.539 21.25 31.5C21.25 31.5 21.9 32.475 24.5 32.475ZM31.975 21.542C33.561 22.53 33.769 25.065 32.443 27.197C31.104 29.329 28.738 30.252 27.152 29.264C25.566 28.25 25.371 25.741 26.697 23.609C28.023 21.477 30.389 20.554 31.975 21.542ZM24.5 35.4C27.75 35.4 34.9 28.718 34.9 23.7C34.9 18.682 30.233 14.6 24.5 14.6C18.767 14.6 14.1 18.682 14.1 23.7C14.1 28.718 21.25 35.4 24.5 35.4ZM24.5 12C31.65 12 37.5 17.252 37.5 23.7C37.5 29.004 30.116 38 24.5 38C18.884 38 11.5 29.004 11.5 23.7C11.5 17.252 17.35 12 24.5 12Z" fill="#02E4C0"></path></svg><svg viewBox="0 0 50 50" fill="none" id="mdi_all-inclusive"><path d="M32.975 19C31.235 19 29.5917 19.6766 28.4196 20.8485L19.925 28.3876C19.1517 29.1608 18.1246 29.5836 17.025 29.5836C14.7654 29.5836 12.9167 27.7593 12.9167 25.5C12.9167 23.2407 14.7654 21.4164 17.025 21.4164C18.1246 21.4164 19.1517 21.8392 19.9733 22.6608L21.3388 23.869L23.1875 22.25L21.6408 20.9089C21.0357 20.3016 20.3163 19.8202 19.524 19.4926C18.7317 19.1649 17.8824 18.9975 17.025 19C13.4242 19 10.5 21.9238 10.5 25.5C10.5 29.0762 13.4242 32 17.025 32C18.765 32 20.4083 31.3234 21.5804 30.1515L30.075 22.6125C30.8483 21.8392 31.8754 21.4164 32.975 21.4164C35.2346 21.4164 37.0833 23.2407 37.0833 25.5C37.0833 27.7593 35.2346 29.5836 32.975 29.5836C31.8875 29.5836 30.8483 29.1608 30.0267 28.3392L28.625 27.119L26.8125 28.7379L28.3592 30.0911C28.9659 30.6954 29.6859 31.174 30.478 31.4995C31.2701 31.8249 32.1186 31.9909 32.975 31.9879C36.5758 31.9879 39.5 29.0762 39.5 25.5C39.5 21.8755 36.5758 19 32.975 19Z" fill="#02E4C0"></path></svg><svg viewBox="0 0 28 31" fill="none" id="twitter"><path d="M26.5 7.5684C25.5071 7.99799 24.4266 8.30716 23.3136 8.42758C24.4691 7.73905 25.3344 6.6513 25.7472 5.3684C24.6629 6.01535 23.475 6.469 22.2363 6.70923C21.7186 6.15411 21.0924 5.71188 20.3969 5.41009C19.7013 5.10829 18.9512 4.95341 18.1933 4.95509C15.127 4.95509 12.6609 7.44799 12.6609 10.5072C12.6609 10.9367 12.7128 11.3663 12.7972 11.7796C8.20581 11.5388 4.11086 9.33882 1.38848 5.97048C0.892427 6.82026 0.63248 7.78784 0.635681 8.77254C0.635681 10.6992 1.61237 12.398 3.10173 13.3971C2.22403 13.3624 1.36687 13.1205 0.599988 12.6909V12.7592C0.599988 15.4572 2.50144 17.693 5.03563 18.2072C4.55981 18.3311 4.07033 18.3945 3.57872 18.3959C3.21854 18.3959 2.87784 18.3601 2.53389 18.3113C3.23477 20.5113 5.27575 22.1092 7.70611 22.1613C5.80465 23.6551 3.42297 24.5338 0.836859 24.5338C0.372852 24.5338 -0.0554621 24.5175 -0.5 24.4654C1.95307 26.0438 4.86366 26.9551 7.99814 26.9551C18.1738 26.9551 23.7419 18.5001 23.7419 11.1613C23.7419 10.9205 23.7419 10.6796 23.7257 10.4388C24.803 9.64799 25.7472 8.6684 26.5 7.5684Z" fill="white"></path></svg></svg>