<svg width="97" height="97" viewBox="0 0 97 97" fill="none" xmlns="http://www.w3.org/2000/svg">
<path fill-rule="evenodd" clip-rule="evenodd" d="M95.9551 48.4775C95.9551 74.6987 74.6986 95.9551 48.4775 95.9551C22.2564 95.9551 1 74.6987 1 48.4775C1 22.2564 22.2564 1 48.4775 1C74.6986 1 95.9551 22.2564 95.9551 48.4775ZM81.6123 48.5066C81.6123 66.7888 66.7917 81.6094 48.5095 81.6094C30.2274 81.6094 15.4068 66.7888 15.4068 48.5066C15.4068 30.2245 30.2274 15.4039 48.5095 15.4039C66.7917 15.4039 81.6123 30.2245 81.6123 48.5066Z" fill="#181818"/>
<path d="M59.4286 10.4686L58.2437 11.1319L57.8091 12.5966L56.7454 12.281L58.4446 6.5534L59.5083 6.86897L58.6369 9.8064L62.3394 7.70886L63.534 8.06327L60.3686 9.91065L61.9821 13.8345L60.7384 13.4656L59.4286 10.4686Z" fill="#02E4C0"/>
<path fill-rule="evenodd" clip-rule="evenodd" d="M53.4176 10.0415L54.4255 11.9216L55.6122 12.0611L54.4766 9.9511C54.9024 9.83787 55.244 9.63739 55.5022 9.34119C55.752 9.04399 55.907 8.6755 55.9598 8.22625C56.0106 7.79396 55.9537 7.40057 55.7871 7.06303C55.6206 6.7255 55.3612 6.44581 54.9997 6.23145C54.6382 6.0171 54.1989 5.87953 53.6819 5.81877L51.2407 5.53186L50.5433 11.4653L51.6453 11.5948L51.8485 9.86566L53.1878 10.0231C53.2895 10.035 53.3658 10.044 53.4176 10.0415ZM54.579 7.17885C54.8009 7.41117 54.8942 7.71431 54.8494 8.09575C54.8046 8.47719 54.6435 8.75044 54.3738 8.92499C54.1031 9.10801 53.7267 9.16689 53.2435 9.1101L51.9551 8.95868L52.233 6.59377L53.5214 6.74519C54.0046 6.80198 54.3571 6.94653 54.579 7.17885Z" fill="#02E4C0"/>
<path fill-rule="evenodd" clip-rule="evenodd" d="M46.1461 11.6871C45.5417 11.7299 44.9793 11.6413 44.4747 11.4033C43.9708 11.1737 43.5618 10.8347 43.2477 10.3864C42.9336 9.938 42.7606 9.42832 42.7197 8.84941C42.6787 8.27049 42.7776 7.73302 43.0254 7.24489C43.2732 6.75677 43.631 6.37209 44.097 6.06532C44.5635 5.76706 45.1079 5.60019 45.7123 5.55741C46.3168 5.51463 46.8792 5.60317 47.3832 5.83275C47.8877 6.07083 48.2961 6.40128 48.6102 6.84964C48.9243 7.298 49.0972 7.80768 49.1388 8.39511C49.1804 8.98254 49.0809 9.5115 48.8331 9.99962C48.5853 10.4877 48.2275 10.8724 47.7609 11.1707C47.2949 11.4775 46.7506 11.6443 46.1461 11.6871ZM46.0775 10.7166C46.4776 10.6882 46.8285 10.5693 47.1309 10.3682C47.4332 10.1671 47.6712 9.90218 47.827 9.56601C47.9835 9.23836 48.0519 8.87417 48.0236 8.47404C47.9952 8.07391 47.8763 7.72297 47.6746 7.41211C47.4735 7.10976 47.2001 6.87244 46.8724 6.71595C46.5448 6.55946 46.1812 6.49963 45.781 6.52795C45.3809 6.55626 45.0294 6.6667 44.727 6.86778C44.4247 7.06886 44.1873 7.34234 44.0308 7.66999C43.875 8.00615 43.8066 8.37034 43.8349 8.77048C43.8633 9.17061 43.9822 9.52155 44.1833 9.82389C44.385 10.1348 44.6578 10.3636 44.9855 10.5201C45.3131 10.6765 45.6773 10.7449 46.0775 10.7166Z" fill="#02E4C0"/>
<path d="M40.5675 12.3293L40.722 6.03733L39.7096 6.3455L39.5777 11.1586L36.8029 7.23024L35.8231 7.52847L35.6674 12.322L32.9246 8.41073L31.8223 8.74624L35.4562 13.8851L36.5912 13.5396L36.7408 8.87282L39.4407 12.6723L40.5675 12.3293Z" fill="#02E4C0"/>
<path d="M30.4233 15.2412L30.919 16.0284L27.1275 18.416L23.9439 13.3606L27.6344 11.0366L28.1301 11.8238L25.3785 13.5565L26.2062 14.871L28.6473 13.3338L29.1339 14.1065L26.6929 15.6437L27.5706 17.0376L30.4233 15.2412Z" fill="#02E4C0"/>
<path d="M19.3094 18.3932L20.8083 17.0994L24.0985 20.9114L24.9384 20.1864L21.6483 16.3745L23.1472 15.0807L22.5338 14.37L18.696 17.6825L19.3094 18.3932Z" fill="#02E4C0"/>
<path fill-rule="evenodd" clip-rule="evenodd" d="M20.5767 22.3937L18.6254 24.6555L19.2876 26.0046L18.5405 26.8705L15.7731 20.9323L16.4868 20.1052L22.772 21.9657L22.0138 22.8446L20.5767 22.3937ZM19.6778 22.103L16.9645 21.25L18.2116 23.8025L19.6778 22.103Z" fill="#02E4C0"/>
<path fill-rule="evenodd" clip-rule="evenodd" d="M15.662 28.2971L17.7912 28.1659L18.4132 27.1457L16.0218 27.297C16.0967 26.8628 16.057 26.4688 15.8956 26.1105C15.7298 25.7595 15.4596 25.4648 15.0734 25.2293C14.7018 25.0027 14.3205 24.8902 13.9443 24.9007C13.568 24.9112 13.2056 25.0301 12.86 25.2692C12.5143 25.5083 12.2059 25.85 11.9349 26.2946L10.6553 28.3932L15.7563 31.5033L16.3339 30.556L14.8473 29.6496L15.5493 28.4983C15.6026 28.4108 15.6426 28.3453 15.662 28.2971ZM13.5453 26.0469C13.8491 25.9422 14.1635 25.984 14.4914 26.1839C14.8193 26.3839 15.0004 26.6442 15.0465 26.9622C15.0998 27.2846 14.9962 27.6512 14.7429 28.0666L14.0676 29.1742L12.0345 27.9346L12.7098 26.827C12.9631 26.4116 13.2416 26.1516 13.5453 26.0469Z" fill="#02E4C0"/>
<path d="M14.3514 32.2777L15.2141 32.6258L13.5375 36.781L7.99721 34.5456L9.6291 30.5011L10.4918 30.8492L9.27507 33.8647L10.7156 34.446L11.795 31.7708L12.6418 32.1125L11.5624 34.7877L13.09 35.404L14.3514 32.2777Z" fill="#02E4C0"/>
<path d="M6.72603 39.2341L6.45996 40.3112L12.2599 41.7439L13.2751 37.6342L12.3637 37.4091L11.6146 40.4416L6.72603 39.2341Z" fill="#02E4C0"/>
<path d="M11.1185 42.8801L12.0448 42.9667L11.6276 47.428L5.6792 46.8717L6.08529 42.5294L7.01154 42.616L6.70876 45.8536L8.25533 45.9983L8.52394 43.126L9.43319 43.2111L9.16458 46.0833L10.8046 46.2367L11.1185 42.8801Z" fill="#02E4C0"/>
<path d="M11.5409 52.5225C11.7785 52.0177 11.8679 51.4723 11.8246 50.8679C11.7899 50.3826 11.6725 49.9375 11.473 49.5411C11.2741 49.1532 11.0028 48.8303 10.6592 48.5725L10.0294 49.3363C10.5287 49.737 10.8048 50.2477 10.8499 50.8777C10.8791 51.2863 10.8117 51.6591 10.656 51.9954C10.5004 52.3317 10.2718 52.6047 9.96963 52.806C9.66744 53.0073 9.30808 53.1272 8.90797 53.1558C8.50786 53.1844 8.13511 53.117 7.80733 52.9607C7.47956 52.8045 7.2059 52.5674 7.00398 52.2567C6.80206 51.946 6.69073 51.586 6.66149 51.1774C6.61642 50.5475 6.8085 50.0032 7.24564 49.5355L6.52195 48.8686C6.21856 49.1726 5.99605 49.5308 5.85442 49.9431C5.71279 50.3554 5.65995 50.8127 5.69467 51.2979C5.73792 51.9024 5.90399 52.4295 6.20262 52.8959C6.50975 53.3616 6.89471 53.7191 7.38303 53.9666C7.87134 54.214 8.40038 54.313 8.98777 54.271C9.57517 54.229 10.0847 54.0556 10.5328 53.7412C10.9815 53.4352 11.3117 53.0266 11.5409 52.5225Z" fill="#02E4C0"/>
<path d="M12.6852 56.8552C12.8272 57.4444 12.8286 57.9971 12.677 58.534C12.5337 59.0689 12.2752 59.5262 11.8828 59.9017C11.4924 60.2854 11.0182 60.5401 10.4457 60.678C9.87321 60.8159 9.33509 60.8051 8.81277 60.6412C8.29045 60.4773 7.85202 60.1879 7.47257 59.7789C7.10142 59.3679 6.85104 58.8752 6.70913 58.2861C6.59519 57.8131 6.57223 57.3534 6.64424 56.9234C6.71624 56.4935 6.87692 56.1036 7.12626 55.7538L7.94965 56.2929C7.59523 56.826 7.49512 57.3944 7.64303 58.0084C7.73898 58.4067 7.9079 58.7435 8.1581 59.0168C8.4083 59.2902 8.71718 59.4791 9.06616 59.5794C9.41514 59.6797 9.79391 59.685 10.1839 59.5911C10.5739 59.4971 10.9087 59.3199 11.1737 59.0717C11.4387 58.8235 11.6194 58.5166 11.7177 58.1593C11.816 57.8021 11.8213 57.4233 11.7254 57.025C11.5774 56.411 11.2212 55.9525 10.6629 55.6393L11.1588 54.7824C11.54 54.9803 11.8606 55.2542 12.1205 55.6042C12.3824 55.9625 12.5713 56.3823 12.6852 56.8552Z" fill="#02E4C0"/>
<path fill-rule="evenodd" clip-rule="evenodd" d="M13.998 65.1471L12.8189 62.4024L13.8534 61.3078L13.3953 60.2413L8.97061 65.0774L9.40181 66.0812L15.9522 66.1932L15.5008 65.1424L13.998 65.1471ZM10.209 65.1492L12.1639 63.0833L13.0499 65.1456L10.209 65.1492Z" fill="#02E4C0"/>
<path d="M15.6867 70.1574L17.9075 70.0674L18.4579 70.828L16.7452 70.9506L18.2862 73.0803L17.657 73.5356L16.116 71.4059L15.4709 72.9894L14.9205 72.2288L15.6867 70.1574Z" fill="#02E4C0"/>
<path d="M21.1423 74.1044L18.9544 74.4966L18.478 76.6531L19.127 77.3315L19.55 75.6748L21.3672 77.5743L21.9284 77.0375L20.1113 75.1379L21.7912 74.7828L21.1423 74.1044Z" fill="#02E4C0"/>
<path d="M24.9203 77.6808L22.8073 78.3703L22.6321 80.5719L23.3683 81.1545L23.5594 79.4554L25.6206 81.0868L26.1026 80.4778L24.0414 78.8464L25.6565 78.2635L24.9203 77.6808Z" fill="#02E4C0"/>
<path d="M65.0677 11.7063L65.8454 10.0631L68.7846 11.4541L69.1825 10.6132L65.2404 8.7476L62.6848 14.1477L63.6877 14.6223L64.6661 12.5549L67.2736 13.7889L67.6752 12.9403L65.0677 11.7063Z" fill="#02E4C0"/>
<path d="M70.8699 11.5697L71.7932 12.1849L69.0011 16.3754L71.6006 18.1074L71.08 18.8887L67.5572 16.5414L70.8699 11.5697Z" fill="#02E4C0"/>
<path fill-rule="evenodd" clip-rule="evenodd" d="M72.7889 19.8782C72.9633 20.4082 73.2861 20.8772 73.7331 21.2863C74.1801 21.6954 74.6758 21.9755 75.219 22.1025C75.7565 22.2358 76.2818 22.2307 76.8065 22.0746C77.3312 21.9185 77.7835 21.6267 78.1811 21.1923C78.5787 20.7579 78.8295 20.2816 78.9386 19.7452C79.0478 19.2088 79.0065 18.685 78.832 18.1551C78.6518 17.6315 78.329 17.1625 77.882 16.7534C77.435 16.3442 76.9394 16.0641 76.4019 15.9308C75.8587 15.8038 75.3333 15.8089 74.8086 15.965C74.2839 16.1212 73.8259 16.4193 73.4341 16.8474C73.0422 17.2755 72.7915 17.7517 72.6823 18.2882C72.5731 18.8246 72.6086 19.3546 72.7889 19.8782ZM75.3677 21.0932C75.0137 21.0122 74.6859 20.8394 74.39 20.5686C74.0941 20.2977 73.8931 19.9865 73.7812 19.641C73.6692 19.2956 73.6475 18.9402 73.7342 18.5799C73.8152 18.226 73.988 17.8982 74.2588 17.6023C74.5297 17.3064 74.8409 17.1053 75.1921 16.9871C75.5375 16.8752 75.8993 16.8592 76.2532 16.9402C76.6072 17.0212 76.9292 17.2002 77.2251 17.4711C77.521 17.7419 77.7278 18.0469 77.8398 18.3923C77.9517 18.7377 77.9677 19.0995 77.8867 19.4534C77.7999 19.8137 77.6272 20.1415 77.3563 20.4374C77.0855 20.7333 76.7742 20.9343 76.4288 21.0462C76.0776 21.1645 75.7216 21.1742 75.3677 21.0932Z" fill="#02E4C0"/>
<path d="M86.7955 27.8577L80.7597 29.6416L80.0875 28.6744L82.875 24.9388L78.3875 26.2286L77.7104 25.2545L81.486 20.2188L82.1436 21.1649L79.2628 24.9758L83.8728 23.6528L84.4574 24.4938L81.5702 28.3403L86.1915 26.9887L86.7955 27.8577Z" fill="#02E4C0"/>
<path fill-rule="evenodd" clip-rule="evenodd" d="M87.1895 38.4195C87.3627 38.1553 87.4522 37.8558 87.4528 37.505C87.6495 37.6915 87.8706 37.816 88.1323 37.8731C88.394 37.9302 88.6585 37.9145 88.9421 37.8204C89.4038 37.6674 89.7012 37.371 89.8477 36.9178C89.9861 36.4673 89.9465 35.9139 89.7236 35.2415L88.8426 32.5844L83.1718 34.4644L84.1065 37.2836C84.3455 38.0046 84.6659 38.5098 85.0594 38.802C85.453 39.0941 85.8874 39.1569 86.3816 38.993C86.7381 38.8749 87.0083 38.6864 87.1895 38.4195ZM86.8019 34.4298L88.3655 33.9115L88.8596 35.4021C88.9805 35.7666 89.0097 36.0717 88.9472 36.3172C88.874 36.5572 88.7118 36.7189 88.4525 36.8049C88.2014 36.8881 87.9747 36.8554 87.7807 36.7039C87.5758 36.547 87.417 36.285 87.2961 35.9204L86.8019 34.4298ZM86.1351 37.8969C85.5923 38.0768 85.1826 37.7631 84.9113 36.9449L84.3473 35.2436L85.9837 34.7011L86.5477 36.4023C86.819 37.2205 86.6779 37.7169 86.1351 37.8969Z" fill="#02E4C0"/>
<path d="M87.5526 42.7455L85.4731 43.0917L85.2909 41.9972L87.3536 41.6539L90.7988 38.7011L90.9936 39.8713L88.41 42.075L91.5709 43.3399L91.7503 44.4175L87.5526 42.7455Z" fill="#02E4C0"/>
<path d="M88.9491 51.9308C89.2896 51.5433 89.4773 50.9275 89.512 50.0833L89.5355 49.5119L90.9117 49.6967L90.8061 52.2635L91.7356 52.3017L91.8798 48.7969L88.6435 48.3562L88.5842 49.7974C88.56 50.3858 88.4664 50.7919 88.3027 51.0329C88.1308 51.265 87.8957 51.3749 87.5887 51.3623C87.3073 51.3507 87.0901 51.2307 86.9372 51.0023C86.7847 50.7654 86.7121 50.4549 86.7282 50.0627C86.7419 49.7301 86.806 49.4167 86.9295 49.1142C87.0448 48.8029 87.2007 48.5446 87.3889 48.3302L86.5469 47.8258C86.3225 48.0899 86.1383 48.4154 86.0024 48.8113C85.858 49.2068 85.7814 49.6137 85.7639 50.0401C85.7425 50.5602 85.8099 50.9987 85.966 51.3553C86.1222 51.7119 86.3415 51.9858 86.6241 52.1768C86.9067 52.3678 87.2272 52.4664 87.5854 52.4811C88.1482 52.5043 88.6 52.3179 88.9491 51.9308Z" fill="#02E4C0"/>
<path fill-rule="evenodd" clip-rule="evenodd" d="M85.1479 55.4778C85.2364 55.0081 85.4329 54.6109 85.7457 54.2878C86.0501 53.963 86.4493 53.7343 86.9501 53.6116C87.4425 53.4873 87.9999 53.4794 88.6289 53.598C89.2579 53.7166 89.7741 53.9268 90.1959 54.2234C90.6093 54.5185 90.8978 54.8769 91.0714 55.2918C91.2367 55.705 91.2751 56.1465 91.1865 56.6162C91.098 57.0859 90.9015 57.4831 90.5955 57.8162C90.2827 58.1394 89.8835 58.3681 89.3911 58.4924C88.8903 58.6151 88.333 58.623 87.7039 58.5044C87.0749 58.3858 86.5587 58.1756 86.1453 57.8805C85.7236 57.5839 85.4351 57.2255 85.2698 56.8122C85.0977 56.389 85.0594 55.9475 85.1479 55.4778ZM86.0956 55.6565C86.0166 56.0758 86.1294 56.4445 86.4275 56.7526C86.7255 57.0606 87.2233 57.2761 87.9111 57.4057C88.5988 57.5354 89.1409 57.516 89.5306 57.3376C89.9204 57.1592 90.1597 56.8569 90.2388 56.4375C90.3163 56.0266 90.2018 55.6663 89.9038 55.3582C89.6058 55.0502 89.1095 54.8264 88.4218 54.6967C87.734 54.5671 87.1903 54.5948 86.8006 54.7732C86.4109 54.9516 86.1731 55.2455 86.0956 55.6565Z" fill="#02E4C0"/>
<path fill-rule="evenodd" clip-rule="evenodd" d="M87.5259 60.1133C87.1528 60.255 86.8883 60.5198 86.7371 60.9189C86.586 61.318 86.6058 61.6996 86.7915 62.0529C86.9771 62.4061 87.299 62.6648 87.7619 62.8401C88.2248 63.0154 88.6373 63.0347 89.0184 62.8961C89.3834 62.7514 89.651 62.4785 89.8021 62.0795C89.9532 61.6804 89.9305 61.3067 89.7448 60.9535C89.5591 60.6003 89.2293 60.3385 88.7744 60.1662C88.3194 59.994 87.8989 59.9717 87.5259 60.1133ZM87.3579 61.738C87.2356 61.5548 87.2143 61.346 87.2959 61.1305C87.3744 60.9229 87.5257 60.7886 87.7466 60.7353C87.9626 60.6711 88.2262 60.6979 88.5296 60.8128C88.8329 60.9276 89.0481 61.0821 89.1754 61.2763C89.2977 61.4595 89.322 61.6604 89.2434 61.8679C89.1618 62.0834 89.0075 62.2258 88.7946 62.282C88.5816 62.3383 88.321 62.3035 88.0097 62.1856C87.6984 62.0677 87.4801 61.9212 87.3579 61.738Z" fill="#02E4C0"/>
<path d="M88.1807 66.1928L88.4769 65.4106L84.3343 59.4798L84.0382 60.262L88.1807 66.1928Z" fill="#02E4C0"/>
<path fill-rule="evenodd" clip-rule="evenodd" d="M83.5047 62.7796C83.1316 62.9212 82.8671 63.1861 82.716 63.5852C82.5649 63.9843 82.5876 64.3579 82.7703 64.7191C82.9559 65.0723 83.2858 65.3341 83.7407 65.5064C84.1957 65.6786 84.6161 65.701 84.9892 65.5593C85.3653 65.4097 85.6298 65.1448 85.7809 64.7457C85.9321 64.3466 85.9093 63.973 85.7236 63.6198C85.5379 63.2665 85.2081 63.0048 84.7532 62.8325C84.2982 62.6602 83.8777 62.6379 83.5047 62.7796ZM83.3477 64.3993C83.2174 64.2131 83.1931 64.0122 83.2747 63.7967C83.3563 63.5812 83.5076 63.4469 83.7205 63.3906C83.9335 63.3343 84.1971 63.3611 84.5084 63.479C84.8197 63.5969 85.0349 63.7514 85.1572 63.9346C85.2795 64.1178 85.3038 64.3186 85.2222 64.5342C85.1406 64.7497 84.9894 64.884 84.7764 64.9403C84.5555 64.9935 84.2918 64.9667 83.9885 64.8519C83.6852 64.737 83.47 64.5825 83.3477 64.3993Z" fill="#02E4C0"/>
<path d="M80.4391 72.2272L79.5887 70.1736L80.1129 69.3947L80.8186 70.9601L82.2862 68.7792L82.9305 69.2128L81.4629 71.3937L83.1717 71.4532L82.6476 72.2321L80.4391 72.2272Z" fill="#02E4C0"/>
<path d="M76.3248 74.2072L76.8839 76.3585L79.0706 76.6678L79.6972 75.9686L78.0129 75.6741L79.7672 73.7164L79.1888 73.1981L77.4345 75.1558L76.9513 73.5081L76.3248 74.2072Z" fill="#02E4C0"/>
<path d="M72.7992 79.9485L72.54 77.7409L73.2564 77.1341L73.5093 78.8325L75.5152 77.1335L76.0171 77.7262L74.0112 79.4251L75.6393 79.9476L74.9229 80.5544L72.7992 79.9485Z" fill="#02E4C0"/>
<path d="M54.6344 86.685C54.2545 86.3871 53.8357 86.2658 53.3697 86.3222C52.8783 86.3817 52.4826 86.5929 52.1847 86.9728C51.8773 87.3453 51.7571 87.7725 51.8155 88.2555C51.874 88.7385 52.0937 89.1331 52.4736 89.431C52.8536 89.7289 53.2808 89.8491 53.7553 89.7917C54.2382 89.7333 54.6244 89.5146 54.9223 89.1346C55.2287 88.7537 55.3489 88.3265 55.2905 87.8435C55.233 87.369 55.0143 86.9829 54.6344 86.685Z" fill="#02E4C0"/>
<path d="M48.3226 86.5903C48.792 86.5966 49.1908 86.7728 49.5275 87.1188C49.8642 87.4647 50.0294 87.8767 50.0229 88.3546C50.0163 88.841 49.84 89.2483 49.4855 89.5849C49.1395 89.9217 48.7276 90.0868 48.2411 90.0802C47.7632 90.0737 47.3559 89.8975 47.0192 89.5515C46.6825 89.2055 46.5175 88.785 46.5241 88.2986C46.5307 87.8121 46.7069 87.4048 47.0613 87.0767C47.4073 86.74 47.8277 86.5836 48.3226 86.5903Z" fill="#02E4C0"/>
<path d="M44.4096 86.876C44.1216 86.4885 43.7497 86.2611 43.2853 86.1927C42.7956 86.1205 42.3582 86.22 41.9707 86.508C41.576 86.7862 41.3474 87.1667 41.2765 87.6479C41.2055 88.1292 41.3135 88.5678 41.6014 88.9553C41.8894 89.3429 42.2698 89.5714 42.7426 89.6411C43.2239 89.712 43.6541 89.6029 44.0416 89.3149C44.4376 89.0282 44.6662 88.6478 44.7371 88.1665C44.8067 87.6937 44.6976 87.2635 44.4096 86.876Z" fill="#02E4C0"/>
<path d="M48.5094 81.6093C66.7916 81.6093 81.6122 66.7887 81.6122 48.5065C81.6122 30.2244 66.7916 15.4038 48.5094 15.4038C30.2273 15.4038 15.4067 30.2244 15.4067 48.5065C15.4067 66.7887 30.2273 81.6093 48.5094 81.6093Z" stroke="#4452FE" stroke-width="0.997316" stroke-miterlimit="1.5" stroke-linecap="round" stroke-linejoin="round"/>
<path d="M48.5099 95.9998C74.7362 95.9998 95.9968 74.7391 95.9968 48.5128C95.9968 22.2865 74.7362 1.02588 48.5099 1.02588C22.2836 1.02588 1.02295 22.2865 1.02295 48.5128C1.02295 74.7391 22.2836 95.9998 48.5099 95.9998Z" stroke="#4452FE" stroke-width="0.997316" stroke-miterlimit="1.5" stroke-linecap="round" stroke-linejoin="round"/>
<path d="M49.0269 30.8284L54.4506 41.8772L66.5792 43.6598L57.8031 52.2553L59.8742 64.3983L49.0269 58.6621L38.1796 64.3983L40.2508 52.2553L31.4746 43.6598L43.6032 41.8772L49.0269 30.8284Z" fill="#181818" stroke="white" stroke-width="0.997316" stroke-linecap="round" stroke-linejoin="round"/>
</svg>
