<svg width="31" height="31" viewBox="0 0 31 31" fill="none" xmlns="http://www.w3.org/2000/svg">
<path d="M28.42 2.95508H3.58C2.98263 2.95508 2.5 3.4377 2.5 4.03508V28.8751C2.5 29.4725 2.98263 29.9551 3.58 29.9551H28.42C29.0174 29.9551 29.5 29.4725 29.5 28.8751V4.03508C29.5 3.4377 29.0174 2.95508 28.42 2.95508ZM25.3015 10.8357H23.1449C21.454 10.8357 21.1266 11.639 21.1266 12.8202V15.4223H25.1631L24.6366 19.496H21.1266V29.9551H16.918V19.4993H13.3979V15.4223H16.918V12.4186C16.918 8.9322 19.0476 7.03208 22.1594 7.03208C23.6511 7.03208 24.9303 7.14345 25.3049 7.19408V10.8357H25.3015Z" fill="white"/>
</svg>
