<svg width="50" height="50" viewBox="0 0 50 50" fill="none" xmlns="http://www.w3.org/2000/svg">
<path d="M19.7275 26.8016L23.2797 22.9748L15.5101 14.6181C14.9076 13.9691 13.8658 14.1449 13.4892 14.9832C12.598 16.998 12.9244 19.4726 14.4683 21.1493L19.7275 26.8016ZM28.2377 24.3541C30.1581 25.3141 32.8567 24.638 34.8525 22.488C37.2499 19.9053 37.7143 16.2002 35.8692 14.2125C34.0366 12.2382 30.5974 12.725 28.1874 15.3078C26.1917 17.4578 25.5641 20.365 26.4553 22.4339L15.0833 34.685C14.8486 34.9378 14.7168 35.2807 14.7168 35.6383C14.7168 35.9959 14.8486 36.3388 15.0833 36.5916C15.318 36.8444 15.6363 36.9865 15.9682 36.9865C16.3001 36.9865 16.6184 36.8444 16.8531 36.5916L24.6227 28.2484L32.3798 36.6051C32.496 36.7303 32.6339 36.8296 32.7858 36.8974C32.9376 36.9651 33.1003 37 33.2647 37C33.429 37 33.5917 36.9651 33.7436 36.8974C33.8954 36.8296 34.0334 36.7303 34.1496 36.6051C34.2658 36.4799 34.358 36.3313 34.4209 36.1677C34.4837 36.0042 34.5161 35.8289 34.5161 35.6518C34.5161 35.4748 34.4837 35.2995 34.4209 35.1359C34.358 34.9723 34.2658 34.8237 34.1496 34.6985L26.3925 26.3418L28.2377 24.3541Z" fill="#02E4C0"/>
</svg>
