<svg width="31" height="31" viewBox="0 0 31 31" fill="none" xmlns="http://www.w3.org/2000/svg">
<path d="M28.42 2.95508H3.58C2.98263 2.95508 2.5 3.4377 2.5 4.03508V28.8751C2.5 29.4725 2.98263 29.9551 3.58 29.9551H28.42C29.0174 29.9551 29.5 29.4725 29.5 28.8751V4.03508C29.5 3.4377 29.0174 2.95508 28.42 2.95508ZM10.5089 25.9625H6.50275V13.0767H10.5089V25.9625ZM8.5075 11.315C8.04825 11.315 7.59932 11.1788 7.21747 10.9236C6.83562 10.6685 6.538 10.3058 6.36225 9.88154C6.18651 9.45725 6.14052 8.99038 6.23012 8.53995C6.31971 8.08953 6.54086 7.67579 6.8656 7.35105C7.19034 7.02631 7.60408 6.80516 8.0545 6.71557C8.50492 6.62597 8.9718 6.67196 9.39609 6.8477C9.82038 7.02345 10.183 7.32107 10.4382 7.70292C10.6933 8.08477 10.8295 8.5337 10.8295 8.99295C10.8261 10.2755 9.78663 11.315 8.5075 11.315ZM25.5074 25.9625H21.5046V19.6951C21.5046 18.2 21.4776 16.2796 19.4223 16.2796C17.3399 16.2796 17.0193 17.9063 17.0193 19.5871V25.9625H13.0199V13.0767H16.8606V14.8385H16.9146C17.4479 13.826 18.754 12.7561 20.7048 12.7561C24.7615 12.7561 25.5074 15.4257 25.5074 18.8952V25.9625Z" fill="white"/>
</svg>
