<svg width="50" height="50" viewBox="0 0 50 50" fill="none" xmlns="http://www.w3.org/2000/svg">
<path d="M22.303 23.609C23.629 25.741 23.434 28.25 21.848 29.264C20.262 30.252 17.896 29.329 16.557 27.197C15.231 25.065 15.439 22.53 17.025 21.542C18.611 20.554 20.977 21.477 22.303 23.609ZM24.5 32.475C27.1 32.475 27.75 31.5 27.75 31.5C27.75 31.5 27.1 34.1 24.5 34.1C21.9 34.1 21.25 31.539 21.25 31.5C21.25 31.5 21.9 32.475 24.5 32.475ZM31.975 21.542C33.561 22.53 33.769 25.065 32.443 27.197C31.104 29.329 28.738 30.252 27.152 29.264C25.566 28.25 25.371 25.741 26.697 23.609C28.023 21.477 30.389 20.554 31.975 21.542ZM24.5 35.4C27.75 35.4 34.9 28.718 34.9 23.7C34.9 18.682 30.233 14.6 24.5 14.6C18.767 14.6 14.1 18.682 14.1 23.7C14.1 28.718 21.25 35.4 24.5 35.4ZM24.5 12C31.65 12 37.5 17.252 37.5 23.7C37.5 29.004 30.116 38 24.5 38C18.884 38 11.5 29.004 11.5 23.7C11.5 17.252 17.35 12 24.5 12Z" fill="#02E4C0"/>
</svg>
