<svg width="50" height="50" viewBox="0 0 50 50" fill="none" xmlns="http://www.w3.org/2000/svg">
<path d="M32.975 19C31.235 19 29.5917 19.6766 28.4196 20.8485L19.925 28.3876C19.1517 29.1608 18.1246 29.5836 17.025 29.5836C14.7654 29.5836 12.9167 27.7593 12.9167 25.5C12.9167 23.2407 14.7654 21.4164 17.025 21.4164C18.1246 21.4164 19.1517 21.8392 19.9733 22.6608L21.3388 23.869L23.1875 22.25L21.6408 20.9089C21.0357 20.3016 20.3163 19.8202 19.524 19.4926C18.7317 19.1649 17.8824 18.9975 17.025 19C13.4242 19 10.5 21.9238 10.5 25.5C10.5 29.0762 13.4242 32 17.025 32C18.765 32 20.4083 31.3234 21.5804 30.1515L30.075 22.6125C30.8483 21.8392 31.8754 21.4164 32.975 21.4164C35.2346 21.4164 37.0833 23.2407 37.0833 25.5C37.0833 27.7593 35.2346 29.5836 32.975 29.5836C31.8875 29.5836 30.8483 29.1608 30.0267 28.3392L28.625 27.119L26.8125 28.7379L28.3592 30.0911C28.9659 30.6954 29.6859 31.174 30.478 31.4995C31.2701 31.8249 32.1186 31.9909 32.975 31.9879C36.5758 31.9879 39.5 29.0762 39.5 25.5C39.5 21.8755 36.5758 19 32.975 19Z" fill="#02E4C0"/>
</svg>
